<svg id="Capa_1" enable-background="new 0 0 512 512" height="35" viewBox="0 0 512 512" width="35" xmlns="http://www.w3.org/2000/svg"><g><g><g><path d="m256 69.395c-87.358 0-167.827-30.179-232.018-67.154-13.28-7.65-28.916 5.67-22.493 19.105 40.168 84.011 138.979 152.207 254.511 152.207s214.343-68.196 254.511-152.208c6.423-13.434-9.214-26.754-22.493-19.105-64.191 36.976-144.66 67.155-232.018 67.155z" fill="#dbebf7"/><path d="m256 69.395v104.159c115.532 0 214.343-68.196 254.511-152.208 6.423-13.434-9.213-26.755-22.493-19.105-64.191 36.975-144.66 67.154-232.018 67.154z" fill="#ccd5ed"/></g><g><path d="m509.713 160.763c3.049 3.351 3.049 8.473 0 11.824-11.016 12.106-52.83 38.585-82.585 38.585-38.573 0-69.842-19.922-69.842-44.497s31.269-44.497 69.842-44.497c29.755 0 71.569 26.48 82.585 38.585z" fill="#e6b9a8"/><path d="m2.287 160.763c-3.049 3.351-3.049 8.473 0 11.824 11.016 12.106 52.83 38.585 82.585 38.585 38.572 0 69.842-19.922 69.842-44.497s-31.269-44.497-69.842-44.497c-29.755 0-71.569 26.48-82.585 38.585z" fill="#f1dbb8"/></g><g><g><g><path d="m368.737 406.07 27.505-144.971-74.727-193.655c-8.475-6.747-19.092-10.566-30.223-10.566h-70.583c-16.533 0-31.929 8.423-40.862 22.354l-67.577 105.391c-6.225 9.708-7.978 21.628-4.813 32.72l35.807 188.725h225.473z" fill="#f9f2f2"/><path d="m321.515 67.444c-8.475-6.747-19.092-10.566-30.223-10.566h-35.292v349.192h112.737l27.505-144.971z" fill="#dbebf7"/></g><g fill="#81626b"><path d="m332.153 79.233c-3.065-4.781-6.905-8.894-11.278-12.259-44.628 11.984-77.485 52.714-77.485 101.125 0 57.828 46.879 104.706 104.707 104.706 17.36 0 33.731-4.229 48.146-11.707l8.301-43.754c3.165-11.093 1.411-23.013-4.813-32.72z"/><path d="m399.731 184.624-67.577-105.391c-3.065-4.781-6.906-8.894-11.278-12.259-27.993 7.516-51.349 26.345-64.876 51.283v99.698c17.722 32.669 52.319 54.85 92.097 54.85 17.36 0 33.731-4.229 48.146-11.707l8.301-43.754c3.165-11.093 1.411-23.013-4.813-32.72z"/></g></g><g><g><path d="m331.517 467.302s-6.364 4.477-10.676 15.23c-4.051 10.103-12.067 18.098-22.268 21.863-27.479 10.141-57.668 10.141-85.147 0-10.201-3.764-18.217-11.76-22.268-21.863-4.312-10.753-10.676-15.23-10.676-15.23l75.518-54.438z" fill="#e6b9a8"/><path d="m256 412.864v99.136c14.417 0 28.834-2.535 42.574-7.605 10.201-3.764 18.217-11.76 22.268-21.863 4.312-10.753 10.676-15.23 10.676-15.23z" fill="#d48e80"/></g><g><path d="m180.482 467.302c18.145-10.729 45.24-17.543 75.518-17.543s57.373 6.814 75.517 17.543c22.854-15.093 37.22-36.935 37.22-61.232 0-45.548-50.474-82.473-112.737-82.473s-112.737 36.924-112.737 82.473c0 24.297 14.366 46.139 37.219 61.232z" fill="#f1dbb8"/><path d="m256 323.597v126.162c30.277 0 57.373 6.814 75.517 17.543 22.854-15.093 37.22-36.935 37.22-61.232 0-45.549-50.474-82.473-112.737-82.473z" fill="#e6b9a8"/></g></g></g></g><g fill="#413038"><path d="m297.435 406.993h-.167c-8.284 0-15-6.716-15-15s6.716-15 15-15h.167c8.284 0 15 6.716 15 15s-6.716 15-15 15z"/><path d="m214.733 406.993h-.167c-8.284 0-15-6.716-15-15s6.716-15 15-15h.167c8.284 0 15 6.716 15 15s-6.716 15-15 15z"/></g><g><path d="m179.22 241.17c-6.177 0-11.848-3.932-14.026-9.703-2.18-5.774-.516-12.434 4.095-16.532 4.884-4.341 12.236-4.929 17.79-1.529 5.399 3.304 8.176 9.918 6.764 16.085-1.545 6.738-7.692 11.679-14.623 11.679z" fill="#523e45"/><path d="m332.78 241.17c-6.174 0-11.845-3.936-14.026-9.703-2.184-5.776-.502-12.425 4.094-16.532 4.875-4.355 12.249-4.918 17.795-1.529 5.404 3.301 8.168 9.92 6.758 16.085-1.542 6.743-7.686 11.679-14.621 11.679z" fill="#2c2126"/></g></g></svg>